<svg width="25" height="26" viewBox="0 0 25 26" fill="none" xmlns="http://www.w3.org/2000/svg">
<circle cx="3.84668" cy="5.75" r="3.5" fill="#0F6AFF"/>
<path fill-rule="evenodd" clip-rule="evenodd" d="M6.32861 10.1923C7.64385 9.66063 9.14633 10.2363 9.76951 11.5108L13.9055 19.9689C14.5942 21.3773 13.944 23.0743 12.4905 23.6619V23.6619C11.1752 24.1936 9.67276 23.6179 9.04958 22.3434L4.9136 13.8853C4.22491 12.4769 4.87513 10.7799 6.32861 10.1923V10.1923Z" fill="#1C95FF"/>
<path fill-rule="evenodd" clip-rule="evenodd" d="M22.1864 2.16808C23.597 2.9181 24.1324 4.66961 23.3824 6.08018L14.7816 22.256C14.0316 23.6666 12.2801 24.202 10.8695 23.452V23.452C9.45893 22.702 8.92344 20.9505 9.67346 19.5399L18.2743 3.36413C19.0243 1.95355 20.7758 1.41807 22.1864 2.16808V2.16808Z" fill="#1C95FF"/>
</svg>
